<svg width="127" height="127" viewBox="0 0 127 127" fill="none" xmlns="http://www.w3.org/2000/svg">
<path d="M60.7663 2.04719C61.8297 -0.30512 65.1703 -0.305115 66.2337 2.04719L73.3473 17.7832C74.1274 19.509 76.2919 20.089 77.8304 18.9845L91.859 8.91348C93.9561 7.40802 96.8491 9.0783 96.5938 11.6471L94.8864 28.8317C94.6991 30.7164 96.2836 32.3009 98.1683 32.1137L115.353 30.4062C117.922 30.1509 119.592 33.044 118.087 35.141L108.016 49.1696C106.911 50.7081 107.491 52.8726 109.217 53.6528L124.953 60.7664C127.305 61.8298 127.305 65.1703 124.953 66.2337L109.217 73.3473C107.491 74.1274 106.911 76.2919 108.016 77.8305L118.087 91.859C119.592 93.9561 117.922 96.8491 115.353 96.5939L98.1683 94.8864C96.2836 94.6991 94.6991 96.2836 94.8864 98.1683L96.5938 115.353C96.8491 117.922 93.9561 119.592 91.859 118.087L77.8304 108.016C76.2919 106.911 74.1274 107.491 73.3473 109.217L66.2337 124.953C65.1703 127.305 61.8297 127.305 60.7663 124.953L53.6527 109.217C52.8726 107.491 50.7082 106.911 49.1697 108.016L35.141 118.087C33.0439 119.592 30.151 117.922 30.4062 115.353L32.1137 98.1683C32.301 96.2836 30.7164 94.6991 28.8317 94.8864L11.6471 96.5939C9.07829 96.8491 7.40802 93.9561 8.91349 91.859L18.9846 77.8305C20.0891 76.2919 19.509 74.1274 17.7832 73.3473L2.04719 66.2337C-0.30512 65.1703 -0.305115 61.8298 2.04719 60.7664L17.7832 53.6528C19.509 52.8726 20.0891 50.7081 18.9846 49.1696L8.91348 35.141C7.40801 33.0439 9.0783 30.1509 11.6471 30.4062L28.8317 32.1137C30.7164 32.3009 32.301 30.7164 32.1137 28.8317L30.4062 11.6471C30.151 9.07829 33.0439 7.40802 35.141 8.91349L49.1697 18.9845C50.7082 20.089 52.8726 19.509 53.6527 17.7832L60.7663 2.04719Z" fill="#699A38"/>
</svg>
